<?xml version="1.0" standalone="no"?>
<!DOCTYPE svg PUBLIC "-//W3C//DTD SVG 20010904//EN"
 "http://www.w3.org/TR/2001/REC-SVG-20010904/DTD/svg10.dtd">
<svg version="1.0" xmlns="http://www.w3.org/2000/svg"
 width="700.000000pt" height="700.000000pt" viewBox="0 0 700.000000 700.000000"
 preserveAspectRatio="xMidYMid meet">
<metadata>
Created by potrace 1.14, written by Peter Selinger 2001-2017
</metadata>
<g transform="translate(0.000000,700.000000) scale(0.100000,-0.100000)"
fill="#000000" stroke="none">
<path d="M1270 6985 c-235 -40 -412 -110 -615 -246 -341 -228 -572 -593 -640
-1014 -22 -135 -22 -4315 0 -4450 46 -281 153 -518 336 -739 213 -258 520
-440 864 -512 87 -18 173 -19 2285 -19 2112 0 2198 1 2285 19 610 128 1063
581 1191 1191 18 87 19 173 19 2285 0 2112 -1 2198 -19 2285 -126 602 -560
1043 -1169 1188 l-92 21 -2185 2 c-1730 2 -2201 -1 -2260 -11z m1148 -1471
c29 -14 64 -41 77 -58 58 -76 55 -5 55 -1410 0 -1220 1 -1296 19 -1381 118
-574 708 -901 1240 -688 271 108 481 349 557 639 37 140 38 326 1 464 -47 181
-125 316 -255 442 -256 249 -597 328 -936 217 -102 -33 -164 -36 -221 -10 -88
40 -140 122 -139 221 1 111 57 187 171 230 392 147 827 108 1188 -105 632
-375 873 -1183 550 -1850 -193 -400 -564 -685 -1002 -772 -122 -24 -376 -24
-497 0 -194 39 -358 106 -518 213 -332 221 -562 588 -617 988 -17 117 -15
2675 1 2730 15 50 89 127 138 143 63 20 131 15 188 -13z"/>
</g>
</svg>
